/* XPM */
static char * peg_e_xpm[] = {
"32 32 200 2",
"  	c None",
". 	c #002A7F",
"+ 	c #002B82",
"@ 	c #002B83",
"# 	c #002C84",
"$ 	c #002C86",
"% 	c #002D88",
"& 	c #002D89",
"* 	c #002E8A",
"= 	c #002B81",
"- 	c #002C85",
"; 	c #385CA5",
"> 	c #7D95C5",
", 	c #9BADD3",
"' 	c #B7C5E0",
") 	c #D5DDED",
"! 	c #053189",
"~ 	c #5271B0",
"{ 	c #AAB9DA",
"] 	c #CFD8EA",
"^ 	c #CFD8EB",
"/ 	c #CFD8EC",
"( 	c #07338B",
"_ 	c #879DC9",
": 	c #BBC8E2",
"< 	c #BBC8E3",
"[ 	c #BBC8E4",
"} 	c #BBC9E4",
"| 	c #BBC9E5",
"1 	c #09348D",
"2 	c #8097C7",
"3 	c #A7B8DA",
"4 	c #A7B8DB",
"5 	c #A7B9DC",
"6 	c #A7B9DE",
"7 	c #A7BADF",
"8 	c #A7BAE0",
"9 	c #3D61A9",
"0 	c #93A8D1",
"a 	c #93A9D4",
"b 	c #93A9D5",
"c 	c #93AAD7",
"d 	c #93AAD9",
"e 	c #93ABDA",
"f 	c #93ABDB",
"g 	c #93ABDC",
"h 	c #002E8C",
"i 	c #5C7CB9",
"j 	c #7E98CB",
"k 	c #7E98CE",
"l 	c #7E99D0",
"m 	c #7E9AD3",
"n 	c #7E9BD5",
"o 	c #7E9BD7",
"p 	c #7E9CD8",
"q 	c #7E9CD9",
"r 	c #003090",
"s 	c #6180BF",
"t 	c #6A88C6",
"u 	c #6A8AC9",
"v 	c #6A8BCD",
"w 	c #6A8CCF",
"x 	c #6A8CD2",
"y 	c #6A8DD4",
"z 	c #6A8ED6",
"A 	c #6A8ED7",
"B 	c #002F8D",
"C 	c #003194",
"D 	c #375FB0",
"E 	c #567AC1",
"F 	c #567BC5",
"G 	c #567CC9",
"H 	c #567ECD",
"I 	c #567ED0",
"J 	c #567FD3",
"K 	c #5680D5",
"L 	c #5680D6",
"M 	c #5680D7",
"N 	c #002A80",
"O 	c #003297",
"P 	c #1445A7",
"Q 	c #426BBD",
"R 	c #426CC2",
"S 	c #426EC7",
"T 	c #426FCB",
"U 	c #4271CF",
"V 	c #4271D2",
"W 	c #4273D4",
"X 	c #4273D6",
"Y 	c #4274D7",
"Z 	c #003092",
"` 	c #00339A",
" .	c #0036A2",
"..	c #1649B1",
"+.	c #2E5EBF",
"@.	c #2E60C4",
"#.	c #2E62CA",
"$.	c #2E63CE",
"%.	c #2E65D2",
"&.	c #2E66D5",
"*.	c #2E67D7",
"=.	c #2E67D8",
"-.	c #002E8B",
";.	c #00349C",
">.	c #0037A5",
",.	c #0039AD",
"'.	c #0B44B7",
").	c #1951C3",
"!.	c #1A54C8",
"~.	c #1A56CE",
"{.	c #1A57D3",
"].	c #1A59D7",
"^.	c #1A5AD9",
"/.	c #1A5ADB",
"(.	c #003195",
"_.	c #00349E",
":.	c #0037A7",
"<.	c #003AAF",
"[.	c #003DB7",
"}.	c #003FBF",
"|.	c #0344C7",
"1.	c #0548CE",
"2.	c #064AD4",
"3.	c #064CD9",
"4.	c #064DDD",
"5.	c #064EDF",
"6.	c #003296",
"7.	c #00359F",
"8.	c #0038A8",
"9.	c #003BB1",
"0.	c #003EB9",
"a.	c #0040C2",
"b.	c #0043CA",
"c.	c #0046D1",
"d.	c #0048D8",
"e.	c #004ADE",
"f.	c #004BE2",
"g.	c #004CE5",
"h.	c #003EBA",
"i.	c #0041C3",
"j.	c #0044CC",
"k.	c #0047D4",
"l.	c #0049DC",
"m.	c #004CE3",
"n.	c #004DE8",
"o.	c #004EEC",
"p.	c #0041C4",
"q.	c #0044CD",
"r.	c #0047D6",
"s.	c #004DE7",
"t.	c #004FEE",
"u.	c #0051F2",
"v.	c #003193",
"w.	c #0037A6",
"x.	c #003DB9",
"y.	c #0041C2",
"z.	c #0047D5",
"A.	c #004ADF",
"B.	c #0050F1",
"C.	c #0053F9",
"D.	c #003399",
"E.	c #0036A3",
"F.	c #003DB6",
"G.	c #0040C0",
"H.	c #0043C9",
"I.	c #0046D3",
"J.	c #004DE6",
"K.	c #0050EF",
"L.	c #0053F8",
"M.	c #0038A9",
"N.	c #003BB2",
"O.	c #003EBB",
"P.	c #0041C5",
"Q.	c #0045CE",
"R.	c #0048D7",
"S.	c #004BE0",
"T.	c #004FED",
"U.	c #003091",
"V.	c #003CB6",
"W.	c #0042C7",
"X.	c #0045CF",
"Y.	c #004ADD",
"Z.	c #00349D",
"`.	c #003AAE",
" +	c #0042C6",
".+	c #0046D4",
"++	c #003CB5",
"@+	c #0040C1",
"#+	c #002F8E",
"$+	c #0036A4",
"%+	c #0039AB",
"&+	c #003AB0",
"*+	c #003DB8",
"=+	c #0037A4",
"-+	c #002F8F",
";+	c #003398",
">+	c #00359E",
",+	c #0035A0",
"'+	c #003192",
")+	c #002B84",
"                                                                ",
"                                                                ",
"                        . + + @ @ + + .                         ",
"                    + # $ % & * * & % $ # +                     ",
"                = - % ; > , ' ) ) ' , > ; % - =                 ",
"              @ ! ~ { ] ^ ^ ^ / / ^ ^ ^ ] { ~ ! @               ",
"            @ ( _ : < [ } | | | | | | } [ < : _ ( @             ",
"          @ 1 2 3 4 5 6 7 7 8 8 8 8 7 7 6 5 4 3 2 1 @           ",
"        = % 9 0 a b c d e f g g g g f e d c b a 0 9 % =         ",
"        - h i j k l m n o p q q q q p o n m l k j i h -         ",
"      + & r s t u v w x y z A A A A z y x w v u t s r & +       ",
"      - B C D E F G H I J K L M M L K J I H G F E D C B -       ",
"    N % r O P Q R S T U V W X Y Y X W V U T S R Q P O r % N     ",
"    + * Z `  ...+.@.#.$.%.&.*.=.=.*.&.%.$.#.@.+... .` Z * +     ",
"    + -.C ;.>.,.'.).!.~.{.].^././.^.].{.~.!.).'.,.>.;.C -.+     ",
"    @ h (._.:.<.[.}.|.1.2.3.4.5.5.4.3.2.1.|.}.[.<.:._.(.h @     ",
"    # B 6.7.8.9.0.a.b.c.d.e.f.g.g.f.e.d.c.b.a.0.9.8.7.6.B #     ",
"    + h 6.7.8.9.h.i.j.k.l.m.n.o.o.n.m.l.k.j.i.h.9.8.7.6.h +     ",
"    + -.(._.8.9.h.p.q.r.e.s.t.u.u.t.s.e.r.q.p.h.9.8._.(.-.+     ",
"    N & v.;.w.<.x.y.j.z.A.n.B.C.C.B.n.A.z.j.y.x.<.w.;.v.& N     ",
"      $ r D.E.,.F.G.H.I.l.J.K.L.L.K.J.l.I.H.G.F.,.E.D.r $       ",
"      @ h 6.7.M.N.O.P.Q.R.S.n.T.T.n.S.R.Q.P.O.N.M.7.6.h @       ",
"        % U.` E.,.V.}.W.X.R.Y.S.S.Y.R.X.W.}.V.,.E.` U.%         ",
"        + -.C Z.w.`.[.}. +j.c..+.+c.j. +}.[.`.w.Z.C -.+         ",
"          - B 6._.w.`.++O.@+P.W.W.P.@+O.++`.w._.6.B -           ",
"            $ #+6.Z.$+%+&+++*+h.h.*+++&+%+$+Z.6.#+$             ",
"              - h v.` 7.=+8.%+,.,.%+8.=+7.` v.h -               ",
"                + & -+C ;+;.>+,+,+>+;.;+C -+& +                 ",
"                    @ % h -+U.'+'+U.-+h % @                     ",
"                        N @ )+- - )+@ N                         ",
"                                                                ",
"                                                                "};
